<!-- Generated by IcoMoon.io -->
<svg version="1.1" xmlns="http://www.w3.org/2000/svg" width="512" height="512" viewBox="0 0 512 512">
<title>delete</title>
<path d="M169.6 233.6c0-9.6 9.6-19.2 22.4-19.2s22.4 9.6 22.4 19.2v128c0 12.8-9.6 22.4-22.4 22.4s-22.4-9.6-22.4-22.4v-128zM0 124.8c0-12.8 9.6-22.4 22.4-22.4h464c12.8 0 22.4 9.6 22.4 22.4s-9.6 22.4-22.4 22.4h-464c-12.8 3.2-22.4-9.6-22.4-22.4zM297.6 233.6c0-6.4 3.2-16 9.6-19.2s16-3.2 22.4 0c6.4 3.2 9.6 9.6 9.6 19.2v128c0 12.8-9.6 22.4-22.4 22.4s-22.4-9.6-22.4-22.4v-128h3.2zM342.4 102.4v-51.2c0-3.2 0-3.2-3.2-6.4 0-3.2-3.2-3.2-6.4-3.2h-153.6c-3.2 0-3.2 0-6.4 3.2s-3.2 3.2-3.2 6.4v51.2h-41.6v-67.2c0-9.6 3.2-19.2 9.6-25.6s16-9.6 25.6-9.6h188.8c16 0 32 16 32 35.2v67.2h-41.6zM86.4 512c-19.2 0-35.2-16-35.2-35.2v-326.4h41.6v310.4c0 3.2 0 3.2 3.2 6.4 0 3.2 3.2 3.2 6.4 3.2h307.2c3.2 0 3.2 0 6.4-3.2 0-3.2 3.2-3.2 3.2-6.4v-310.4h41.6v329.6c0 19.2-16 35.2-35.2 35.2h-339.2z"></path>
</svg>
