<!-- Generated by IcoMoon.io -->
<svg version="1.1" xmlns="http://www.w3.org/2000/svg" width="32" height="32" viewBox="0 0 32 32">
<title>descending</title>
<path d="M7.429 13.091h19.142c0.37 0 0.691-0.144 0.961-0.432s0.406-0.629 0.406-1.023-0.136-0.735-0.406-1.023l-9.571-10.182c-0.27-0.288-0.591-0.432-0.961-0.432s-0.691 0.144-0.962 0.432l-9.571 10.182c-0.271 0.288-0.406 0.629-0.406 1.023s0.135 0.735 0.406 1.023c0.271 0.288 0.591 0.432 0.962 0.432z"></path>
<path d="M26.571 18.909h-19.142c-0.371 0-0.691 0.144-0.962 0.432s-0.406 0.629-0.406 1.023 0.135 0.735 0.406 1.023l9.571 10.181c0.271 0.288 0.591 0.432 0.962 0.432s0.691-0.144 0.961-0.432l9.571-10.182c0.27-0.288 0.406-0.629 0.406-1.023s-0.136-0.735-0.406-1.023c-0.27-0.288-0.591-0.431-0.961-0.431z"></path>
</svg>
