<!-- Generated by IcoMoon.io -->
<svg version="1.1" xmlns="http://www.w3.org/2000/svg" width="32" height="32" viewBox="0 0 32 32">
<title>filter</title>
<path d="M15.542 8.242h16.413v2.813h-16.413v-2.813z"></path>
<path d="M0 8.242h4.793v2.813h-4.793v-2.813z"></path>
<path d="M27.161 20.901h4.793v2.813h-4.793v-2.813z"></path>
<path d="M0 20.901h16.413v2.813h-16.413v-2.813z"></path>
<path d="M10.167 4.022c-3.209 0-5.81 2.519-5.81 5.626s2.601 5.626 5.81 5.626c3.209 0 5.81-2.519 5.81-5.626s-2.601-5.626-5.81-5.626zM10.167 12.729c-1.757 0-3.181-1.379-3.181-3.080s1.424-3.080 3.181-3.080c1.757 0 3.181 1.379 3.181 3.080s-1.424 3.080-3.181 3.080z"></path>
<path d="M21.787 16.681c-3.209 0-5.81 2.519-5.81 5.626s2.601 5.626 5.81 5.626c3.209 0 5.81-2.519 5.81-5.626s-2.601-5.626-5.81-5.626zM21.787 25.43c-1.781 0-3.224-1.398-3.224-3.123s1.444-3.123 3.224-3.123c1.781 0 3.224 1.398 3.224 3.123s-1.444 3.123-3.224 3.123z"></path>
</svg>
