<!-- Generated by IcoMoon.io -->
<svg version="1.1" xmlns="http://www.w3.org/2000/svg" width="32" height="32" viewBox="0 0 32 32">
<title>search</title>
<path d="M30.959 29.13l-7.611-7.916c1.957-2.326 3.029-5.254 3.029-8.301 0-7.12-5.793-12.912-12.912-12.912s-12.912 5.793-12.912 12.912c0 7.12 5.793 12.912 12.912 12.912 2.673 0 5.22-0.806 7.398-2.337l7.669 7.976c0.321 0.333 0.752 0.517 1.214 0.517 0.437 0 0.852-0.167 1.167-0.47 0.669-0.644 0.691-1.712 0.047-2.381zM13.465 3.368c5.263 0 9.544 4.281 9.544 9.544s-4.281 9.544-9.544 9.544c-5.263 0-9.544-4.281-9.544-9.544s4.281-9.544 9.544-9.544z"></path>
</svg>
