<!-- Generated by IcoMoon.io -->
<svg version="1.1" xmlns="http://www.w3.org/2000/svg" width="32" height="32" viewBox="0 0 32 32">
<title>tooltip</title>
<path d="M15.51 21.451c-0.915 0-1.656 0.762-1.656 1.677 0 0.893 0.719 1.677 1.656 1.677s1.677-0.784 1.677-1.677c0-0.915-0.762-1.677-1.678-1.677z"></path>
<path d="M15.793 8.75c-2.941 0-4.292 1.743-4.292 2.919 0 0.85 0.719 1.242 1.307 1.242 1.176 0 0.697-1.678 2.919-1.678 1.089 0 1.961 0.479 1.961 1.481 0 1.177-1.22 1.852-1.939 2.462-0.632 0.545-1.46 1.438-1.46 3.311 0 1.133 0.305 1.46 1.198 1.46 1.067 0 1.285-0.479 1.285-0.893 0-1.133 0.022-1.786 1.22-2.723 0.588-0.457 2.44-1.939 2.44-3.987s-1.852-3.595-4.64-3.595z"></path>
<path d="M16 0c-8.843 0-16 7.156-16 16v14.75c0 0.69 0.56 1.25 1.25 1.25h14.75c8.843 0 16-7.156 16-16 0-8.843-7.156-16-16-16zM16 29.5h-13.5v-13.5c0-7.461 6.038-13.5 13.5-13.5 7.461 0 13.5 6.038 13.5 13.5 0 7.461-6.038 13.5-13.5 13.5z"></path>
</svg>
